<svg xmlns="http://www.w3.org/2000/svg" viewBox="0 0 400 300" role="img" aria-label="Автовышка">
  <circle cx="200" cy="158" r="128" fill="#f1f3f5"/>
  <ellipse cx="200" cy="264" rx="150" ry="9" fill="#000" opacity="0.07"/>
  <!-- нижнее колено стрелы -->
  <path d="M150 192 L258 120" stroke="#1a1a1a" stroke-width="20" stroke-linecap="round" fill="none"/>
  <path d="M150 192 L258 120" stroke="#ffc61a" stroke-width="12" stroke-linecap="round" fill="none"/>
  <!-- верхнее колено стрелы -->
  <path d="M258 120 L330 58" stroke="#1a1a1a" stroke-width="16" stroke-linecap="round" fill="none"/>
  <path d="M258 120 L330 58" stroke="#e6b000" stroke-width="9" stroke-linecap="round" fill="none"/>
  <!-- шарниры -->
  <circle cx="258" cy="120" r="8" fill="#1a1a1a"/>
  <circle cx="258" cy="120" r="3.5" fill="#6e6e6e"/>
  <!-- люлька -->
  <rect x="322" y="56" width="40" height="30" rx="5" fill="#ffc61a"/>
  <rect x="322" y="56" width="40" height="8" rx="4" fill="#1a1a1a"/>
  <!-- турель -->
  <rect x="126" y="174" width="48" height="28" rx="7" fill="#ffc61a"/>
  <circle cx="150" cy="192" r="8" fill="#1a1a1a"/>
  <circle cx="150" cy="192" r="3.5" fill="#6e6e6e"/>
  <!-- рама -->
  <rect x="70" y="198" width="244" height="20" rx="6" fill="#e6b000"/>
  <!-- кабина -->
  <rect x="252" y="150" width="58" height="68" rx="9" fill="#ffc61a"/>
  <rect x="261" y="159" width="29" height="27" rx="4" fill="#2d2d2d"/>
  <!-- аутригер -->
  <rect x="88" y="214" width="11" height="28" rx="4" fill="#2d2d2d"/>
  <rect x="78" y="240" width="30" height="8" rx="4" fill="#1a1a1a"/>
  <!-- колёса -->
  <circle cx="148" cy="232" r="24" fill="#2d2d2d"/>
  <circle cx="148" cy="232" r="10" fill="#6e6e6e"/>
  <circle cx="272" cy="232" r="24" fill="#2d2d2d"/>
  <circle cx="272" cy="232" r="10" fill="#6e6e6e"/>
</svg>
