<svg xmlns="http://www.w3.org/2000/svg" viewBox="0 0 400 300" role="img" aria-label="Манипулятор">
  <circle cx="200" cy="158" r="128" fill="#f1f3f5"/>
  <ellipse cx="200" cy="264" rx="150" ry="9" fill="#000" opacity="0.07"/>
  <!-- стрела КМУ (колено) -->
  <path d="M236 158 L172 112" stroke="#1a1a1a" stroke-width="18" stroke-linecap="round" fill="none"/>
  <path d="M236 158 L172 112" stroke="#ffc61a" stroke-width="11" stroke-linecap="round" fill="none"/>
  <path d="M172 112 L106 140" stroke="#1a1a1a" stroke-width="15" stroke-linecap="round" fill="none"/>
  <path d="M172 112 L106 140" stroke="#ffc61a" stroke-width="8" stroke-linecap="round" fill="none"/>
  <circle cx="172" cy="112" r="7" fill="#1a1a1a"/>
  <circle cx="172" cy="112" r="3" fill="#6e6e6e"/>
  <!-- трос и крюк -->
  <line x1="106" y1="140" x2="106" y2="172" stroke="#1a1a1a" stroke-width="3"/>
  <path d="M106 172 a7 7 0 1 0 7 7" stroke="#2d2d2d" stroke-width="5" fill="none" stroke-linecap="round"/>
  <!-- основание КМУ -->
  <rect x="228" y="150" width="22" height="40" rx="6" fill="#2d2d2d"/>
  <circle cx="239" cy="158" r="7" fill="#1a1a1a"/>
  <circle cx="239" cy="158" r="3" fill="#6e6e6e"/>
  <!-- бортовая платформа -->
  <rect x="64" y="184" width="172" height="22" rx="5" fill="#ffc61a"/>
  <rect x="64" y="184" width="172" height="8" rx="4" fill="#e6b000"/>
  <!-- рама -->
  <rect x="64" y="204" width="250" height="16" rx="6" fill="#e6b000"/>
  <!-- кабина -->
  <rect x="256" y="142" width="58" height="76" rx="9" fill="#ffc61a"/>
  <rect x="265" y="151" width="29" height="29" rx="4" fill="#2d2d2d"/>
  <!-- колёса -->
  <circle cx="118" cy="232" r="24" fill="#2d2d2d"/>
  <circle cx="118" cy="232" r="10" fill="#6e6e6e"/>
  <circle cx="172" cy="232" r="24" fill="#2d2d2d"/>
  <circle cx="172" cy="232" r="10" fill="#6e6e6e"/>
  <circle cx="282" cy="232" r="24" fill="#2d2d2d"/>
  <circle cx="282" cy="232" r="10" fill="#6e6e6e"/>
</svg>
