<svg xmlns="http://www.w3.org/2000/svg" viewBox="0 0 400 300" role="img" aria-label="Мини-погрузчик">
  <circle cx="200" cy="158" r="128" fill="#f1f3f5"/>
  <ellipse cx="200" cy="260" rx="125" ry="8" fill="#000" opacity="0.07"/>
  <!-- стрела вдоль борта -->
  <path d="M138 142 L262 196" stroke="#1a1a1a" stroke-width="18" stroke-linecap="round" fill="none"/>
  <path d="M138 142 L262 196" stroke="#ffc61a" stroke-width="11" stroke-linecap="round" fill="none"/>
  <circle cx="138" cy="142" r="7" fill="#1a1a1a"/>
  <circle cx="138" cy="142" r="3" fill="#6e6e6e"/>
  <!-- корпус -->
  <rect x="120" y="160" width="130" height="56" rx="10" fill="#ffc61a"/>
  <rect x="132" y="174" width="28" height="4" rx="2" fill="#1a1a1a" opacity="0.25"/>
  <rect x="132" y="184" width="28" height="4" rx="2" fill="#1a1a1a" opacity="0.25"/>
  <!-- кабина -->
  <rect x="156" y="116" width="64" height="58" rx="9" fill="#ffc61a"/>
  <rect x="165" y="125" width="46" height="32" rx="4" fill="#2d2d2d"/>
  <!-- ковш -->
  <path d="M258 186 l44 2 -6 32 -42 -6 z" fill="#2d2d2d"/>
  <circle cx="262" cy="196" r="6" fill="#1a1a1a"/>
  <circle cx="262" cy="196" r="2.5" fill="#6e6e6e"/>
  <!-- колёса -->
  <circle cx="152" cy="230" r="21" fill="#2d2d2d"/>
  <circle cx="152" cy="230" r="9" fill="#6e6e6e"/>
  <circle cx="222" cy="230" r="21" fill="#2d2d2d"/>
  <circle cx="222" cy="230" r="9" fill="#6e6e6e"/>
</svg>
