<svg xmlns="http://www.w3.org/2000/svg" viewBox="0 0 400 300" role="img" aria-label="Мини-экскаватор">
  <circle cx="200" cy="158" r="128" fill="#f1f3f5"/>
  <ellipse cx="200" cy="262" rx="130" ry="8" fill="#000" opacity="0.07"/>
  <!-- отвал -->
  <line x1="148" y1="216" x2="116" y2="232" stroke="#6e6e6e" stroke-width="8" stroke-linecap="round"/>
  <rect x="98" y="214" width="16" height="42" rx="5" fill="#e6b000"/>
  <!-- гусеницы -->
  <rect x="128" y="218" width="136" height="40" rx="20" fill="#2d2d2d"/>
  <rect x="138" y="228" width="116" height="20" rx="10" fill="#1a1a1a"/>
  <circle cx="156" cy="238" r="8" fill="#6e6e6e"/>
  <circle cx="196" cy="238" r="8" fill="#6e6e6e"/>
  <circle cx="236" cy="238" r="8" fill="#6e6e6e"/>
  <!-- корпус -->
  <rect x="128" y="170" width="92" height="48" rx="9" fill="#ffc61a"/>
  <rect x="138" y="182" width="26" height="4" rx="2" fill="#1a1a1a" opacity="0.25"/>
  <rect x="138" y="192" width="26" height="4" rx="2" fill="#1a1a1a" opacity="0.25"/>
  <!-- кабина -->
  <rect x="176" y="126" width="48" height="68" rx="8" fill="#ffc61a"/>
  <rect x="184" y="134" width="32" height="32" rx="4" fill="#2d2d2d"/>
  <!-- стрела и рукоять -->
  <path d="M228 192 L282 130" stroke="#1a1a1a" stroke-width="22" stroke-linecap="round" fill="none"/>
  <path d="M228 192 L282 130" stroke="#ffc61a" stroke-width="14" stroke-linecap="round" fill="none"/>
  <path d="M282 130 L310 200" stroke="#1a1a1a" stroke-width="17" stroke-linecap="round" fill="none"/>
  <path d="M282 130 L310 200" stroke="#ffc61a" stroke-width="10" stroke-linecap="round" fill="none"/>
  <path d="M310 196 l26 6 -9 23 -23 -9 z" fill="#2d2d2d"/>
  <circle cx="228" cy="192" r="7" fill="#1a1a1a"/>
  <circle cx="228" cy="192" r="3" fill="#6e6e6e"/>
  <circle cx="282" cy="130" r="7" fill="#1a1a1a"/>
  <circle cx="282" cy="130" r="3" fill="#6e6e6e"/>
  <circle cx="310" cy="200" r="6" fill="#1a1a1a"/>
  <circle cx="310" cy="200" r="2.5" fill="#6e6e6e"/>
</svg>
