<svg xmlns="http://www.w3.org/2000/svg" viewBox="0 0 400 300" role="img" aria-label="Бульдозер">
  <circle cx="200" cy="158" r="128" fill="#f1f3f5"/>
  <ellipse cx="200" cy="264" rx="150" ry="9" fill="#000" opacity="0.07"/>
  <!-- гусеницы -->
  <rect x="100" y="208" width="176" height="52" rx="26" fill="#2d2d2d"/>
  <rect x="112" y="220" width="152" height="28" rx="14" fill="#1a1a1a"/>
  <circle cx="130" cy="234" r="10" fill="#6e6e6e"/>
  <circle cx="162" cy="234" r="10" fill="#6e6e6e"/>
  <circle cx="194" cy="234" r="10" fill="#6e6e6e"/>
  <circle cx="226" cy="234" r="10" fill="#6e6e6e"/>
  <circle cx="250" cy="234" r="10" fill="#6e6e6e"/>
  <!-- корпус -->
  <rect x="86" y="182" width="200" height="26" rx="7" fill="#e6b000"/>
  <rect x="96" y="138" width="110" height="48" rx="9" fill="#ffc61a"/>
  <rect x="108" y="150" width="32" height="4" rx="2" fill="#1a1a1a" opacity="0.25"/>
  <rect x="108" y="160" width="32" height="4" rx="2" fill="#1a1a1a" opacity="0.25"/>
  <!-- труба выхлопа -->
  <rect x="116" y="116" width="10" height="24" rx="4" fill="#2d2d2d"/>
  <!-- кабина -->
  <rect x="192" y="116" width="56" height="70" rx="8" fill="#ffc61a"/>
  <rect x="201" y="125" width="36" height="34" rx="4" fill="#2d2d2d"/>
  <!-- толкающая рама -->
  <path d="M258 196 L322 196" stroke="#1a1a1a" stroke-width="13" stroke-linecap="round"/>
  <path d="M262 172 L316 184" stroke="#6e6e6e" stroke-width="8" stroke-linecap="round"/>
  <!-- отвал -->
  <path d="M318 150 q26 10 26 56 q0 30 -10 42 l-22 0 q14 -42 -8 -98 z" fill="#2d2d2d"/>
  <path d="M324 158 q18 14 18 48 q0 24 -8 36" stroke="#6e6e6e" stroke-width="5" fill="none" stroke-linecap="round"/>
  <circle cx="258" cy="196" r="7" fill="#1a1a1a"/>
  <circle cx="258" cy="196" r="3" fill="#6e6e6e"/>
</svg>
