<svg xmlns="http://www.w3.org/2000/svg" viewBox="0 0 400 300" role="img" aria-label="Экскаватор-погрузчик">
  <circle cx="200" cy="158" r="128" fill="#f1f3f5"/>
  <ellipse cx="200" cy="262" rx="145" ry="9" fill="#000" opacity="0.07"/>
  <!-- задняя стрела (обратная лопата) -->
  <path d="M152 168 L106 116" stroke="#1a1a1a" stroke-width="19" stroke-linecap="round" fill="none"/>
  <path d="M152 168 L106 116" stroke="#ffc61a" stroke-width="12" stroke-linecap="round" fill="none"/>
  <path d="M106 116 L74 182" stroke="#1a1a1a" stroke-width="16" stroke-linecap="round" fill="none"/>
  <path d="M106 116 L74 182" stroke="#ffc61a" stroke-width="9" stroke-linecap="round" fill="none"/>
  <path d="M76 178 l-24 9 11 22 17 -11 z" fill="#2d2d2d"/>
  <circle cx="106" cy="116" r="7" fill="#1a1a1a"/>
  <circle cx="106" cy="116" r="3" fill="#6e6e6e"/>
  <circle cx="74" cy="182" r="6" fill="#1a1a1a"/>
  <!-- корпус -->
  <rect x="140" y="162" width="116" height="42" rx="9" fill="#ffc61a"/>
  <circle cx="152" cy="168" r="7" fill="#1a1a1a"/>
  <circle cx="152" cy="168" r="3" fill="#6e6e6e"/>
  <!-- кабина -->
  <rect x="164" y="116" width="66" height="70" rx="9" fill="#ffc61a"/>
  <rect x="173" y="125" width="48" height="34" rx="4" fill="#2d2d2d"/>
  <!-- выхлоп -->
  <rect x="240" y="132" width="9" height="32" rx="4" fill="#2d2d2d"/>
  <!-- передняя стрела -->
  <path d="M252 172 L312 204" stroke="#1a1a1a" stroke-width="19" stroke-linecap="round" fill="none"/>
  <path d="M252 172 L312 204" stroke="#ffc61a" stroke-width="12" stroke-linecap="round" fill="none"/>
  <circle cx="252" cy="172" r="7" fill="#1a1a1a"/>
  <circle cx="252" cy="172" r="3" fill="#6e6e6e"/>
  <!-- передний ковш -->
  <path d="M306 188 l38 8 -8 32 -34 -10 z" fill="#2d2d2d"/>
  <!-- колёса -->
  <circle cx="170" cy="226" r="30" fill="#2d2d2d"/>
  <circle cx="170" cy="226" r="13" fill="#6e6e6e"/>
  <circle cx="272" cy="234" r="22" fill="#2d2d2d"/>
  <circle cx="272" cy="234" r="9" fill="#6e6e6e"/>
</svg>
