<svg xmlns="http://www.w3.org/2000/svg" viewBox="0 0 400 300" role="img" aria-label="Колёсный экскаватор">
  <circle cx="200" cy="158" r="128" fill="#f1f3f5"/>
  <ellipse cx="205" cy="264" rx="150" ry="9" fill="#000" opacity="0.07"/>
  <!-- шасси -->
  <rect x="110" y="202" width="176" height="18" rx="6" fill="#2d2d2d"/>
  <!-- аутригер -->
  <line x1="276" y1="212" x2="292" y2="246" stroke="#2d2d2d" stroke-width="9" stroke-linecap="round"/>
  <rect x="280" y="246" width="26" height="8" rx="4" fill="#1a1a1a"/>
  <!-- колёса -->
  <circle cx="150" cy="230" r="26" fill="#2d2d2d"/>
  <circle cx="150" cy="230" r="11" fill="#6e6e6e"/>
  <circle cx="240" cy="230" r="26" fill="#2d2d2d"/>
  <circle cx="240" cy="230" r="11" fill="#6e6e6e"/>
  <!-- поворотная платформа -->
  <rect x="92" y="180" width="196" height="24" rx="7" fill="#e6b000"/>
  <!-- корпус -->
  <rect x="92" y="130" width="124" height="54" rx="9" fill="#ffc61a"/>
  <rect x="104" y="142" width="34" height="4" rx="2" fill="#1a1a1a" opacity="0.25"/>
  <rect x="104" y="152" width="34" height="4" rx="2" fill="#1a1a1a" opacity="0.25"/>
  <rect x="104" y="162" width="34" height="4" rx="2" fill="#1a1a1a" opacity="0.25"/>
  <rect x="118" y="110" width="10" height="24" rx="4" fill="#2d2d2d"/>
  <!-- кабина -->
  <rect x="202" y="108" width="50" height="76" rx="8" fill="#ffc61a"/>
  <rect x="210" y="117" width="34" height="36" rx="4" fill="#2d2d2d"/>
  <!-- гидроцилиндр -->
  <line x1="244" y1="160" x2="296" y2="124" stroke="#6e6e6e" stroke-width="7" stroke-linecap="round"/>
  <!-- стрела и рукоять -->
  <path d="M262 180 L322 106" stroke="#1a1a1a" stroke-width="27" stroke-linecap="round" fill="none"/>
  <path d="M262 180 L322 106" stroke="#ffc61a" stroke-width="18" stroke-linecap="round" fill="none"/>
  <path d="M322 106 L354 190" stroke="#1a1a1a" stroke-width="21" stroke-linecap="round" fill="none"/>
  <path d="M322 106 L354 190" stroke="#ffc61a" stroke-width="13" stroke-linecap="round" fill="none"/>
  <path d="M354 186 l32 7 -11 28 -28 -11 z" fill="#2d2d2d"/>
  <circle cx="262" cy="180" r="8" fill="#1a1a1a"/>
  <circle cx="262" cy="180" r="3.5" fill="#6e6e6e"/>
  <circle cx="322" cy="106" r="8" fill="#1a1a1a"/>
  <circle cx="322" cy="106" r="3.5" fill="#6e6e6e"/>
  <circle cx="354" cy="190" r="7" fill="#1a1a1a"/>
  <circle cx="354" cy="190" r="3" fill="#6e6e6e"/>
</svg>
