<svg xmlns="http://www.w3.org/2000/svg" viewBox="0 0 400 300" role="img" aria-label="Дорожный каток">
  <circle cx="200" cy="158" r="128" fill="#f1f3f5"/>
  <ellipse cx="200" cy="264" rx="150" ry="9" fill="#000" opacity="0.07"/>
  <!-- корпус -->
  <rect x="118" y="170" width="186" height="42" rx="9" fill="#e6b000"/>
  <rect x="150" y="120" width="92" height="62" rx="9" fill="#ffc61a"/>
  <rect x="162" y="130" width="42" height="34" rx="4" fill="#2d2d2d"/>
  <!-- капот -->
  <rect x="236" y="148" width="70" height="42" rx="8" fill="#ffc61a"/>
  <rect x="246" y="158" width="30" height="4" rx="2" fill="#1a1a1a" opacity="0.25"/>
  <rect x="246" y="168" width="30" height="4" rx="2" fill="#1a1a1a" opacity="0.25"/>
  <!-- рама вальца -->
  <path d="M132 196 L98 210" stroke="#1a1a1a" stroke-width="12" stroke-linecap="round"/>
  <!-- передний валец -->
  <circle cx="106" cy="222" r="40" fill="#2d2d2d"/>
  <circle cx="106" cy="222" r="30" fill="#6e6e6e"/>
  <circle cx="106" cy="222" r="12" fill="#2d2d2d"/>
  <!-- заднее колесо -->
  <circle cx="276" cy="226" r="30" fill="#2d2d2d"/>
  <circle cx="276" cy="226" r="13" fill="#6e6e6e"/>
  <!-- ограждение кабины -->
  <rect x="146" y="108" width="100" height="10" rx="5" fill="#1a1a1a"/>
  <rect x="150" y="112" width="8" height="22" rx="4" fill="#2d2d2d"/>
  <rect x="234" y="112" width="8" height="22" rx="4" fill="#2d2d2d"/>
</svg>
