<svg xmlns="http://www.w3.org/2000/svg" viewBox="0 0 400 300" role="img" aria-label="Телескопический погрузчик">
  <circle cx="200" cy="158" r="128" fill="#f1f3f5"/>
  <ellipse cx="200" cy="262" rx="145" ry="9" fill="#000" opacity="0.07"/>
  <!-- телескопическая стрела -->
  <path d="M252 184 L338 96" stroke="#1a1a1a" stroke-width="24" stroke-linecap="round" fill="none"/>
  <path d="M252 184 L338 96" stroke="#ffc61a" stroke-width="16" stroke-linecap="round" fill="none"/>
  <path d="M300 136 L346 88" stroke="#e6b000" stroke-width="9" stroke-linecap="round" fill="none"/>
  <circle cx="252" cy="184" r="8" fill="#1a1a1a"/>
  <circle cx="252" cy="184" r="3.5" fill="#6e6e6e"/>
  <!-- каретка с вилами -->
  <line x1="346" y1="88" x2="346" y2="118" stroke="#2d2d2d" stroke-width="7" stroke-linecap="round"/>
  <line x1="346" y1="118" x2="380" y2="118" stroke="#2d2d2d" stroke-width="7" stroke-linecap="round"/>
  <!-- корпус -->
  <rect x="106" y="166" width="158" height="48" rx="10" fill="#ffc61a"/>
  <rect x="226" y="178" width="30" height="4" rx="2" fill="#1a1a1a" opacity="0.25"/>
  <rect x="226" y="188" width="30" height="4" rx="2" fill="#1a1a1a" opacity="0.25"/>
  <!-- кабина -->
  <rect x="114" y="126" width="56" height="62" rx="9" fill="#ffc61a"/>
  <rect x="122" y="134" width="40" height="32" rx="4" fill="#2d2d2d"/>
  <!-- колёса -->
  <circle cx="150" cy="230" r="26" fill="#2d2d2d"/>
  <circle cx="150" cy="230" r="11" fill="#6e6e6e"/>
  <circle cx="240" cy="230" r="26" fill="#2d2d2d"/>
  <circle cx="240" cy="230" r="11" fill="#6e6e6e"/>
</svg>
