<svg xmlns="http://www.w3.org/2000/svg" viewBox="0 0 400 300" role="img" aria-label="Ямобур">
  <circle cx="200" cy="158" r="128" fill="#f1f3f5"/>
  <ellipse cx="200" cy="264" rx="150" ry="9" fill="#000" opacity="0.07"/>
  <!-- стрела к мачте -->
  <path d="M168 192 L286 110" stroke="#1a1a1a" stroke-width="18" stroke-linecap="round" fill="none"/>
  <path d="M168 192 L286 110" stroke="#ffc61a" stroke-width="11" stroke-linecap="round" fill="none"/>
  <!-- мачта бура -->
  <line x1="296" y1="96" x2="296" y2="160" stroke="#2d2d2d" stroke-width="12" stroke-linecap="round"/>
  <!-- шнек (спираль) -->
  <line x1="296" y1="156" x2="296" y2="248" stroke="#1a1a1a" stroke-width="8"/>
  <path d="M280 168 l32 10 M280 188 l32 10 M280 208 l32 10 M280 228 l32 10" stroke="#e6b000" stroke-width="7" stroke-linecap="round"/>
  <path d="M288 252 l8 12 8 -12 z" fill="#1a1a1a"/>
  <!-- турель -->
  <rect x="144" y="176" width="48" height="28" rx="7" fill="#ffc61a"/>
  <circle cx="168" cy="192" r="8" fill="#1a1a1a"/>
  <circle cx="168" cy="192" r="3.5" fill="#6e6e6e"/>
  <!-- рама -->
  <rect x="62" y="200" width="216" height="20" rx="6" fill="#e6b000"/>
  <!-- кабина -->
  <rect x="62" y="150" width="58" height="70" rx="9" fill="#ffc61a"/>
  <rect x="71" y="159" width="29" height="27" rx="4" fill="#2d2d2d"/>
  <!-- аутригер -->
  <rect x="246" y="216" width="11" height="26" rx="4" fill="#2d2d2d"/>
  <rect x="236" y="240" width="30" height="8" rx="4" fill="#1a1a1a"/>
  <!-- колёса -->
  <circle cx="104" cy="234" r="24" fill="#2d2d2d"/>
  <circle cx="104" cy="234" r="10" fill="#6e6e6e"/>
  <circle cx="196" cy="234" r="24" fill="#2d2d2d"/>
  <circle cx="196" cy="234" r="10" fill="#6e6e6e"/>
</svg>
